PathFileType	4	(X/Y/Z)	C:/Users/opensim2020/Desktop/walking_exp_matlab/subject01_walking06_straight_04.trc																																																																																																																															
DataRate	CameraRate	NumFrames	NumMarkers	Units	OrigDataRate	OrigDataStartFrame	OrigNumFrames																																																																																																																											
100	100	6	43	mm	100	2949	212																																																																																																																											
Frame#	Time	LFHD			RFHD			LBHD			RBHD			C7			T10			CLAV			STRN			RBAK			LSHO			LUPA			LELB			LFRM			LWRA			LWRB			LFIN			RSHO			RUPA			RELB			RFRM			RWRA			RWRB			RFIN			LASI			RASI			LPSI			RPSI			LTHI			LKNE			LTIB			LANK			LHEE			LTOE			RTHI			RKNE			RTIB			RANK			RHEE			RTOE			*39			*40			*41			*42		
		X1	Y1	Z1	X2	Y2	Z2	X3	Y3	Z3	X4	Y4	Z4	X5	Y5	Z5	X6	Y6	Z6	X7	Y7	Z7	X8	Y8	Z8	X9	Y9	Z9	X10	Y10	Z10	X11	Y11	Z11	X12	Y12	Z12	X13	Y13	Z13	X14	Y14	Z14	X15	Y15	Z15	X16	Y16	Z16	X17	Y17	Z17	X18	Y18	Z18	X19	Y19	Z19	X20	Y20	Z20	X21	Y21	Z21	X22	Y22	Z22	X23	Y23	Z23	X24	Y24	Z24	X25	Y25	Z25	X26	Y26	Z26	X27	Y27	Z27	X28	Y28	Z28	X29	Y29	Z29	X30	Y30	Z30	X31	Y31	Z31	X32	Y32	Z32	X33	Y33	Z33	X34	Y34	Z34	X35	Y35	Z35	X36	Y36	Z36	X37	Y37	Z37	X38	Y38	Z38	X39	Y39	Z39	X40	Y40	Z40	X41	Y41	Z41	X42	Y42	Z42	X43	Y43	Z43
																																																																																																																																		
160	1.59	395.68854	1665.77686	1014.30328	427.68335	1668.8479	1125.21777	277.67822	1630.77527	1042.95374	308.82892	1633.995	1159.53687	234.36816	1431.83374	1076.86914	200.92084	1137.77734	1083.82739	379.73563	1365.04626	1074.59216	424.23343	1212.7218	1069.72217	181.55939	1237.87988	1155.76648	316.07971	1392.93823	914.3974	302.60492	1209.59534	825.27917	306.96854	1056.22131	820.24506	374.19418	961.11285	799.66736	479.76401	872.33228	826.20892	430.98907	852.77216	797.33051	496.72903	799.4386	793.53864	318.53223	1392.40393	1227.66089	257.03714	1193.6073	1327.99463	254.65298	1069.15308	1331.00232	276.48511	951.63287	1364.69739	352.2381	830.18915	1348.04871	308.69766	834.68573	1387.9679	339.62805	752.88177	1383.91614	380.45633	935.70721	977.41376	379.06464	938.48999	1194.04285	194.17216	942.77979	1032.49341	196.26257	941.83984	1178.34106	346.01929	600.42645	933.2807	331.86002	465.5748	952.94073	268.61377	285.44073	950.82684	224.3703	73.01253	1008.87506	176.4288	47.13085	1061.01807	370.01114	32.54477	1006.04004	420.30814	616.53241	1267.57349	465.92636	465.31168	1252.29932	342.76248	339.91592	1253.45911	225.16725	170.78755	1208.4325	170.61415	157.28056	1151.15857	317.57159	62.74817	1223.61157	414.84763	1703.54736	1104.02246	-1973.09082	1023.297	3101.84473	-2012.53674	1021.98334	3140.66943	NaN	NaN	NaN
161	1.6	405.83627	1665.70068	1014.58319	437.94119	1668.52734	1125.49915	287.61606	1630.84973	1042.71094	319.0672	1633.77124	1159.8855	244.10255	1432.0437	1077.31311	210.34122	1137.87085	1083.42493	389.55212	1364.8689	1074.49915	433.73065	1212.38879	1069.32178	191.29518	1237.79395	1155.27209	325.96582	1393.22522	914.3175	313.15509	1210.06775	824.85303	318.92355	1056.69751	819.22919	388.48679	963.09503	798.64307	496.54117	877.284	825.10461	448.23849	856.36621	796.47925	515.24841	804.71185	792.61444	328.33759	1392.11096	1227.65686	265.34567	1193.4801	1327.41272	261.97946	1069.1106	1330.00232	281.97314	951.31866	1363.50671	356.08972	828.91064	1347.3811	312.42078	834.15198	1387.04077	342.13754	751.71155	1383.0603	388.89053	935.22736	976.7854	388.68097	938.69843	1193.39685	202.96219	942.61133	1032.63171	205.73581	941.81238	1178.54468	350.43311	600.19769	932.83344	334.62152	465.31744	952.44165	270.18542	285.73337	950.66772	224.53522	73.50711	1008.89777	176.65157	47.99494	1061.19531	370.09509	32.44973	1006.04022	433.03973	617.83624	1267.18542	481.29636	467.17297	1251.43433	364.22314	335.23492	1253.21252	254.97725	160.78917	1208.17053	200.69481	143.93784	1151.04993	353.84897	59.51333	1224.08826	425.17941	1703.25378	1104.36633	-1973.2019	1023.37555	3101.97656	-2012.55652	1022.08447	3140.63892	NaN	NaN	NaN
162	1.61	416.01843	1665.37183	1015.14136	448.24133	1668.13342	1125.81409	297.92337	1630.7168	1043.73889	329.33096	1633.46704	1160.28845	254.09698	1431.89099	1077.39771	219.77267	1137.90747	1083.25305	399.41159	1364.48523	1074.47412	443.26285	1211.93628	1068.95459	201.00784	1237.56458	1154.95825	335.88843	1393.32935	914.38074	323.6669	1210.39783	824.53052	331.08667	1057	818.32855	402.73523	965.0636	797.71503	513.06525	882.23773	824.04907	465.19266	859.96765	795.73401	533.57764	809.97461	791.79614	338.27347	1391.61853	1227.54993	273.76227	1193.23633	1326.90869	269.37387	1068.98218	1329.07947	287.64819	951.01605	1362.35193	360.13144	827.6109	1346.83472	316.02676	833.28052	1386.14148	344.86926	750.48883	1382.30225	397.76196	934.74945	976.323	398.28293	938.78998	1192.80847	211.55907	942.13422	1032.87451	215.1862	941.62921	1178.81628	354.92679	599.86816	932.508	337.41962	465.0491	952.1181	271.90182	286.02509	950.54919	224.82626	73.95203	1008.9527	176.83659	48.81666	1061.3418	370.12418	32.47292	1005.98584	446.37781	619.69623	1267.51111	495.94052	468.7449	1250.56189	385.64972	330.44894	1253.12927	285.505	150.54533	1208.17432	231.92516	130.12871	1151.3031	390.84714	56.72854	1224.78503	435.46033	1702.90088	1104.74207	-1973.05103	1023.25079	3101.92603	-2012.53967	1022.01898	3140.74292	NaN	NaN	NaN
163	1.62	426.21921	1664.97705	1015.5722	458.45718	1667.68103	1126.16895	308.05716	1630.53247	1044.23022	339.58344	1633.09607	1160.73535	263.94415	1431.84753	1077.64246	229.16685	1137.82813	1083.26868	409.18262	1364.05664	1074.61743	452.79486	1211.38562	1068.63318	210.75084	1237.25769	1154.76404	345.85217	1393.46021	914.52808	334.10712	1210.6366	824.27246	342.87222	1057.53955	817.04895	416.73956	966.95258	796.92944	529.27246	887.0614	823.18347	481.97406	863.46094	795.1015	551.5863	815.23151	791.05566	348.22104	1391.09534	1227.75232	282.33093	1192.80872	1326.50464	276.79053	1068.78784	1328.2981	293.42938	950.63251	1361.52856	364.43484	826.29718	1346.38965	320.19537	832.53217	1385.25354	347.78854	749.31049	1381.64441	405.85278	933.93475	975.6626	407.96396	938.7049	1192.32214	220.56329	941.63409	1033.39868	224.70396	941.23682	1179.15771	359.66232	599.43134	932.38025	340.46866	464.74408	951.7818	273.686	286.3017	950.50415	225.13957	74.49175	1009.01453	176.88649	49.6031	1061.422	370.16147	32.3778	1005.97595	458.71567	620.89038	1267.40454	509.79703	469.95172	1249.89807	406.83316	325.49319	1253.20581	316.71335	140.38051	1208.66968	264.54385	116.40511	1151.77112	428.33997	54.09892	1225.64319	445.87622	1702.57202	1105.33057	-1973.10547	1023.38245	3102.16699	-2012.47803	1021.92621	3140.6543	NaN	NaN	NaN
164	1.63	436.29391	1664.86816	1015.93005	468.728	1667.17603	1126.64612	318.0527	1630.30371	1044.20593	349.84277	1632.65601	1161.29602	273.95282	1431.56482	1078.03345	238.62735	1137.65247	1083.47205	419.10788	1363.48853	1074.74597	462.37424	1210.74829	1068.35217	220.49065	1236.87158	1154.72998	355.7482	1393.3999	914.72675	344.57184	1210.79468	824.15759	355.07217	1057.80969	816.3429	430.77045	968.80499	796.18463	545.1687	891.84265	822.39429	498.37183	866.98206	794.5379	569.18445	820.44098	790.43573	358.25726	1390.44568	1227.99146	290.98621	1192.34607	1326.17419	284.35074	1068.49658	1327.68091	299.31674	950.12958	1360.84827	368.90195	825.03394	1346.04114	324.53149	831.74823	1384.44543	351.07852	748.38379	1381.29285	414.51825	933.17297	975.11365	417.70218	938.45551	1191.84448	229.10559	941.13782	1033.78662	234.30075	940.9917	1179.59924	364.59753	599.09979	932.3371	343.5936	464.48401	951.58838	275.53192	286.67627	950.48114	225.6371	75.09964	1009.1535	177.25412	50.64277	1061.63159	370.21329	32.44898	1005.88715	470.49622	621.76984	1267.30273	522.76941	470.87726	1249.33228	428.09131	320.48804	1253.59033	348.86014	130.35225	1209.56677	297.96597	103.01692	1152.81165	466.11401	51.95528	1226.65259	455.99881	1702.00305	1105.74744	-1973.05786	1023.92383	3102.36401	-2012.56824	1022.14539	3140.82031	NaN	NaN	NaN
165	1.64	446.43631	1664.57874	1016.44019	478.97137	1666.59961	1127.15613	328.37051	1629.90759	1045.44604	360.13071	1632.12683	1161.91064	284.03992	1431.21948	1078.08484	248.10068	1137.37659	1083.84607	429.11902	1363.11853	1074.93542	471.89063	1210.0675	1068.15662	230.28091	1236.46509	1154.83276	365.60419	1393.27393	915.05334	355.04608	1210.89087	824.10907	366.65823	1057.91821	815.85803	444.51074	970.6521	795.54913	560.65125	896.40472	821.82776	514.52856	870.39545	794.19812	586.37067	825.81781	789.72412	368.34335	1389.72095	1228.32764	299.7244	1191.83728	1326.00781	292.01349	1068.17346	1327.21436	305.46973	949.70319	1360.22241	373.55783	823.78766	1345.70728	328.88913	830.93689	1383.82031	354.39688	747.33929	1380.71631	423.04977	932.40857	974.59326	427.50949	938.05035	1191.39575	238.27333	940.64838	1034.51489	243.92484	940.36676	1180.12244	369.73987	598.81537	932.39661	346.81009	464.32953	951.38544	277.36737	287.11047	950.47681	225.744	75.95416	1009.1908	177.51411	51.64268	1061.83508	370.21182	32.37453	1005.89038	481.51187	621.9754	1266.90247	534.90741	471.39368	1248.72498	449.29535	315.55869	1254.14734	381.55466	120.81203	1210.99121	332.31342	90.5116	1154.02893	503.53543	49.87708	1227.77905	466.33185	1701.57202	1106.3634	-1973.05701	1023.84186	3102.13086	-2012.73389	1022.23706	3140.23218	NaN	NaN	NaN
